ffmpeg version 2.8.4-tessus Copyright (c) 2000-2015 the FFmpeg developers
  built with Apple LLVM version 6.0 (clang-600.0.57) (based on LLVM 3.5svn)
  configuration: --cc=/usr/bin/clang --prefix=/opt/ffmpeg --as=yasm --extra-version=tessus --enable-avisynth --enable-fontconfig --enable-gpl --enable-libass --enable-libbluray --enable-libfreetype --enable-libgsm --enable-libmodplug --enable-libmp3lame --enable-libopencore-amrnb --enable-libopencore-amrwb --enable-libopus --enable-libschroedinger --enable-libsoxr --enable-libspeex --enable-libtheora --enable-libvidstab --enable-libvo-aacenc --enable-libvo-amrwbenc --enable-libvorbis --enable-libvpx --enable-libwavpack --enable-libx264 --enable-libx265 --enable-libxavs --enable-libxvid --enable-libzmq --enable-version3 --disable-ffplay --disable-indev=qtkit --disable-indev=x11grab_xcb
  libavutil      54. 31.100 / 54. 31.100
  libavcodec     56. 60.100 / 56. 60.100
  libavformat    56. 40.101 / 56. 40.101
  libavdevice    56.  4.100 / 56.  4.100
  libavfilter     5. 40.101 /  5. 40.101
  libswscale      3.  1.101 /  3.  1.101
  libswresample   1.  2.101 /  1.  2.101
  libpostproc    53.  3.100 / 53.  3.100
Input #0, matroska,webm, from 'http://localhost:8888/gifycator/public/uploads/tjVSiAcPZN.webm':
  Metadata:
    encoder         : Lavf56.40.101
  Duration: 00:00:01.60, start: 0.000000, bitrate: 39 kb/s
    Stream #0:0: Video: vp9 (Profile 0), yuv420p(tv), 650x408, SAR 1:1 DAR 325:204, 23.08 fps, 23.08 tbr, 1k tbn, 1k tbc (default)
Input #1, matroska,webm, from '/Applications/MAMP/tmp/php/phpLiOthb':
  Metadata:
    encoder         : Lavf55.48.100
  Duration: 00:00:15.01, start: 0.000000, bitrate: 516 kb/s
    Stream #1:0: Video: vp8, yuv420p, 720x404, SAR 254:255 DAR 3048:1717, 29.91 fps, 29.91 tbr, 1k tbn, 1k tbc (default)
[libvpx-vp9 @ 0x7fddc9039800] v1.3.0
Output #0, webm, to 'uploads/1xfasJymoJ.webm':
  Metadata:
    encoder         : Lavf56.40.101
    Stream #0:0: Video: vp9 (libvpx-vp9), yuv420p, 500x500 [SAR 1:1 DAR 1:1], q=-1--1, 200 kb/s, 23.08 fps, 1k tbn, 23.08 tbc (default)
    Metadata:
      encoder         : Lavc56.60.100 libvpx-vp9
Stream mapping:
  Stream #0:0 (vp9) -> scale
  Stream #1:0 (vp8) -> scale
  concat -> Stream #0:0 (libvpx-vp9)
Press [q] to stop, [?] for help
Past duration 0.680824 too large
Past duration 0.895988 too large
Past duration 0.947914 too large
frame=   26 fps=0.0 q=0.0 size=       2kB time=00:00:00.17 bitrate= 106.9kbits/s dup=0 drop=2    Past duration 0.877831 too large
frame=   29 fps= 18 q=0.0 size=       3kB time=00:00:00.56 bitrate=  41.4kbits/s dup=0 drop=3    frame=   31 fps= 13 q=0.0 size=       3kB time=00:00:00.82 bitrate=  33.9kbits/s dup=0 drop=3    frame=   31 fps= 10 q=0.0 size=       3kB time=00:00:00.82 bitrate=  33.9kbits/s dup=0 drop=3    frame=   34 fps=9.3 q=0.0 size=       4kB time=00:00:01.21 bitrate=  28.7kbits/s dup=0 drop=4    Past duration 0.929741 too large
frame=   36 fps=8.2 q=0.0 size=       5kB time=00:00:01.47 bitrate=  28.8kbits/s dup=0 drop=5    frame=   37 fps=7.1 q=0.0 size=       6kB time=00:00:01.60 bitrate=  29.5kbits/s dup=0 drop=5    Past duration 0.836571 too large
frame=   40 fps=6.7 q=0.0 size=       9kB time=00:00:01.81 bitrate=  42.5kbits/s dup=0 drop=6    frame=   41 fps=6.2 q=0.0 size=      10kB time=00:00:01.86 bitrate=  46.0kbits/s dup=0 drop=6    Past duration 0.981667 too large
frame=   44 fps=6.0 q=0.0 size=      13kB time=00:00:01.99 bitrate=  52.9kbits/s dup=0 drop=7    Past duration 0.888496 too large
frame=   46 fps=5.7 q=0.0 size=      15kB time=00:00:02.07 bitrate=  58.3kbits/s dup=0 drop=8    frame=   48 fps=5.6 q=0.0 size=      17kB time=00:00:02.16 bitrate=  63.7kbits/s dup=0 drop=8    frame=   50 fps=5.4 q=0.0 size=      20kB time=00:00:02.25 bitrate=  71.0kbits/s dup=0 drop=9    frame=   51 fps=5.2 q=0.0 size=      21kB time=00:00:02.29 bitrate=  73.3kbits/s dup=0 drop=9    Past duration 0.940407 too large
frame=   52 fps=5.1 q=0.0 size=      22kB time=00:00:02.33 bitrate=  77.7kbits/s dup=0 drop=10    frame=   54 fps=4.9 q=0.0 size=      24kB time=00:00:02.42 bitrate=  81.2kbits/s dup=0 drop=10    Past duration 0.870323 too large
frame=   56 fps=4.7 q=0.0 size=      28kB time=00:00:02.51 bitrate=  91.9kbits/s dup=0 drop=11    frame=   57 fps=4.6 q=0.0 size=      29kB time=00:00:02.55 bitrate=  92.0kbits/s dup=0 drop=11    frame=   58 fps=4.3 q=0.0 size=      31kB time=00:00:02.59 bitrate=  96.2kbits/s dup=0 drop=11    frame=   61 fps=4.3 q=0.0 size=      35kB time=00:00:02.72 bitrate= 105.3kbits/s dup=0 drop=12    Past duration 0.922249 too large
frame=   63 fps=4.2 q=0.0 size=      38kB time=00:00:02.81 bitrate= 110.5kbits/s dup=0 drop=13    frame=   64 fps=4.0 q=0.0 size=      40kB time=00:00:02.85 bitrate= 114.1kbits/s dup=0 drop=13    Past duration 0.829079 too large
frame=   67 fps=4.0 q=0.0 size=      45kB time=00:00:02.99 bitrate= 122.5kbits/s dup=0 drop=14    frame=   68 fps=3.9 q=0.0 size=      46kB time=00:00:03.03 bitrate= 124.5kbits/s dup=0 drop=14    Past duration 0.974159 too large
frame=   70 fps=3.8 q=0.0 size=      48kB time=00:00:03.12 bitrate= 125.8kbits/s dup=0 drop=15    frame=   71 fps=3.7 q=0.0 size=      49kB time=00:00:03.16 bitrate= 126.6kbits/s dup=0 drop=15    Past duration 0.880989 too large
frame=   74 fps=3.7 q=0.0 size=      53kB time=00:00:03.29 bitrate= 132.1kbits/s dup=0 drop=16    frame=   75 fps=3.6 q=0.0 size=      54kB time=00:00:03.33 bitrate= 133.6kbits/s dup=0 drop=16    frame=   78 fps=3.6 q=0.0 size=      59kB time=00:00:03.46 bitrate= 138.5kbits/s dup=0 drop=17    Past duration 0.932915 too large
frame=   80 fps=3.6 q=0.0 size=      61kB time=00:00:03.55 bitrate= 140.1kbits/s dup=0 drop=18    frame=   81 fps=3.5 q=0.0 size=      63kB time=00:00:03.59 bitrate= 143.0kbits/s dup=0 drop=18    Past duration 0.862831 too large
frame=   84 fps=3.5 q=0.0 size=      66kB time=00:00:03.72 bitrate= 144.7kbits/s dup=0 drop=19    frame=   85 fps=3.4 q=0.0 size=      67kB time=00:00:03.77 bitrate= 145.8kbits/s dup=0 drop=19    frame=   87 fps=3.4 q=0.0 size=      70kB time=00:00:03.85 bitrate= 148.7kbits/s dup=0 drop=20    frame=   88 fps=3.4 q=0.0 size=      70kB time=00:00:03.90 bitrate= 147.9kbits/s dup=0 drop=20    Past duration 0.914742 too large
frame=   91 fps=3.4 q=0.0 size=      74kB time=00:00:04.03 bitrate= 149.5kbits/s dup=0 drop=21    frame=   91 fps=3.3 q=0.0 size=      74kB time=00:00:04.03 bitrate= 149.5kbits/s dup=0 drop=21    Past duration 0.821571 too large
frame=   93 fps=3.3 q=0.0 size=      76kB time=00:00:04.11 bitrate= 151.4kbits/s dup=0 drop=22    frame=   95 fps=3.3 q=0.0 size=      80kB time=00:00:04.20 bitrate= 155.4kbits/s dup=0 drop=22    frame=   95 fps=3.2 q=0.0 size=      80kB time=00:00:04.20 bitrate= 155.4kbits/s dup=0 drop=22    Past duration 0.966652 too large
frame=   98 fps=3.2 q=0.0 size=      82kB time=00:00:04.33 bitrate= 155.7kbits/s dup=0 drop=23    Past duration 0.873497 too large
frame=  100 fps=3.2 q=0.0 size=      85kB time=00:00:04.41 bitrate= 158.2kbits/s dup=0 drop=24    frame=  102 fps=3.2 q=0.0 size=      86kB time=00:00:04.50 bitrate= 156.3kbits/s dup=0 drop=24    frame=  104 fps=3.2 q=0.0 size=      88kB time=00:00:04.59 bitrate= 157.3kbits/s dup=0 drop=25    frame=  105 fps=3.1 q=0.0 size=      90kB time=00:00:04.63 bitrate= 159.2kbits/s dup=0 drop=25    Past duration 0.925407 too large
frame=  108 fps=3.1 q=0.0 size=      94kB time=00:00:04.76 bitrate= 160.7kbits/s dup=0 drop=26    frame=  108 fps=3.1 q=0.0 size=      94kB time=00:00:04.76 bitrate= 160.7kbits/s dup=0 drop=26    Past duration 0.855324 too large
frame=  110 fps=3.1 q=0.0 size=      95kB time=00:00:04.85 bitrate= 161.2kbits/s dup=0 drop=27    frame=  112 fps=3.1 q=0.0 size=      97kB time=00:00:04.93 bitrate= 161.6kbits/s dup=0 drop=27    Past duration 0.977333 too large
frame=  114 fps=3.0 q=0.0 size=      99kB time=00:00:05.02 bitrate= 162.1kbits/s dup=0 drop=28    frame=  115 fps=3.0 q=0.0 size=     101kB time=00:00:05.06 bitrate= 163.1kbits/s dup=0 drop=28    frame=  115 fps=3.0 q=0.0 size=     101kB time=00:00:05.06 bitrate= 163.1kbits/s dup=0 drop=28    Past duration 0.907249 too large
frame=  118 fps=3.0 q=0.0 size=     104kB time=00:00:05.19 bitrate= 164.1kbits/s dup=0 drop=29    frame=  119 fps=3.0 q=0.0 size=     104kB time=00:00:05.24 bitrate= 163.2kbits/s dup=0 drop=29    frame=  121 fps=3.0 q=0.0 size=     107kB time=00:00:05.32 bitrate= 164.6kbits/s dup=0 drop=30    frame=  122 fps=2.9 q=0.0 size=     109kB time=00:00:05.37 bitrate= 166.4kbits/s dup=0 drop=30    Past duration 0.959160 too large
frame=  124 fps=2.9 q=0.0 size=     112kB time=00:00:05.45 bitrate= 168.7kbits/s dup=0 drop=31    frame=  125 fps=2.9 q=0.0 size=     114kB time=00:00:05.50 bitrate= 170.2kbits/s dup=0 drop=31    Past duration 0.865990 too large
frame=  128 fps=2.9 q=0.0 size=     117kB time=00:00:05.63 bitrate= 170.6kbits/s dup=0 drop=32    frame=  129 fps=2.9 q=0.0 size=     120kB time=00:00:05.67 bitrate= 172.6kbits/s dup=0 drop=32    frame=  132 fps=2.9 q=0.0 size=     122kB time=00:00:05.80 bitrate= 172.5kbits/s dup=0 drop=33    frame=  132 fps=2.8 q=0.0 size=     122kB time=00:00:05.80 bitrate= 172.5kbits/s dup=0 drop=33    Past duration 0.917915 too large
frame=  135 fps=2.9 q=0.0 size=     125kB time=00:00:05.93 bitrate= 172.2kbits/s dup=0 drop=34    Past duration 0.847832 too large
frame=  137 fps=2.8 q=0.0 size=     128kB time=00:00:06.02 bitrate= 174.1kbits/s dup=0 drop=35    frame=  138 fps=2.8 q=0.0 size=     129kB time=00:00:06.06 bitrate= 173.6kbits/s dup=0 drop=35    frame=  139 fps=2.8 q=0.0 size=     131kB time=00:00:06.10 bitrate= 175.6kbits/s dup=0 drop=35    Past duration 0.969826 too large
frame=  142 fps=2.8 q=0.0 size=     134kB time=00:00:06.23 bitrate= 175.8kbits/s dup=0 drop=36    Past duration 0.899742 too large
frame=  144 fps=2.8 q=0.0 size=     137kB time=00:00:06.32 bitrate= 177.5kbits/s dup=0 drop=37    frame=  145 fps=2.8 q=0.0 size=     138kB time=00:00:06.36 bitrate= 176.9kbits/s dup=0 drop=37    frame=  146 fps=2.7 q=0.0 size=     139kB time=00:00:06.41 bitrate= 178.1kbits/s dup=0 drop=37    frame=  149 fps=2.8 q=0.0 size=     142kB time=00:00:06.54 bitrate= 178.3kbits/s dup=0 drop=38    Past duration 0.951653 too large
frame=  151 fps=2.7 q=0.0 size=     146kB time=00:00:06.62 bitrate= 180.1kbits/s dup=0 drop=39    frame=  152 fps=2.7 q=0.0 size=     146kB time=00:00:06.67 bitrate= 179.2kbits/s dup=0 drop=39    Past duration 0.858498 too large
frame=  154 fps=2.7 q=0.0 size=     148kB time=00:00:06.75 bitrate= 179.7kbits/s dup=0 drop=40    frame=  156 fps=2.7 q=0.0 size=     151kB time=00:00:06.84 bitrate= 180.3kbits/s dup=0 drop=40    frame=  156 fps=2.7 q=0.0 size=     151kB time=00:00:06.84 bitrate= 180.3kbits/s dup=0 drop=40    frame=  158 fps=2.7 q=0.0 size=     156kB time=00:00:06.93 bitrate= 184.8kbits/s dup=0 drop=41    frame=  159 fps=2.7 q=0.0 size=     157kB time=00:00:06.97 bitrate= 183.9kbits/s dup=0 drop=41    Past duration 0.910408 too large
frame=  161 fps=2.7 q=0.0 size=     159kB time=00:00:07.06 bitrate= 184.6kbits/s dup=0 drop=42    frame=  162 fps=2.7 q=0.0 size=     161kB time=00:00:07.10 bitrate= 185.8kbits/s dup=0 drop=42    Past duration 0.840324 too large
frame=  165 fps=2.7 q=0.0 size=     164kB time=00:00:07.23 bitrate= 185.2kbits/s dup=0 drop=43    frame=  166 fps=2.7 q=0.0 size=     164kB time=00:00:07.27 bitrate= 184.5kbits/s dup=0 drop=43    Past duration 0.962318 too large
frame=  168 fps=2.7 q=0.0 size=     166kB time=00:00:07.36 bitrate= 184.4kbits/s dup=0 drop=44    frame=  169 fps=2.7 q=0.0 size=     167kB time=00:00:07.40 bitrate= 184.8kbits/s dup=0 drop=44    Past duration 0.892235 too large
frame=  172 fps=2.7 q=0.0 size=     174kB time=00:00:07.53 bitrate= 188.7kbits/s dup=0 drop=45    frame=  173 fps=2.7 q=0.0 size=     174kB time=00:00:07.58 bitrate= 187.9kbits/s dup=0 drop=45    frame=  175 fps=2.6 q=0.0 size=     177kB time=00:00:07.66 bitrate= 189.1kbits/s dup=0 drop=46    frame=  176 fps=2.6 q=0.0 size=     179kB time=00:00:07.71 bitrate= 190.1kbits/s dup=0 drop=46    Past duration 0.944160 too large
frame=  179 fps=2.6 q=0.0 size=     182kB time=00:00:07.84 bitrate= 189.6kbits/s dup=0 drop=47    Past duration 0.850990 too large
frame=  181 fps=2.6 q=0.0 size=     184kB time=00:00:07.92 bitrate= 190.2kbits/s dup=0 drop=48    frame=  182 fps=2.6 q=0.0 size=     184kB time=00:00:07.97 bitrate= 189.4kbits/s dup=0 drop=48    frame=  183 fps=2.6 q=0.0 size=     186kB time=00:00:08.01 bitrate= 190.2kbits/s dup=0 drop=48    Past duration 0.996071 too large
frame=  186 fps=2.6 q=0.0 size=     192kB time=00:00:08.14 bitrate= 193.6kbits/s dup=0 drop=49    frame=  186 fps=2.6 q=0.0 size=     192kB time=00:00:08.14 bitrate= 193.6kbits/s dup=0 drop=49    Past duration 0.902916 too large
frame=  189 fps=2.6 q=0.0 size=     196kB time=00:00:08.27 bitrate= 193.6kbits/s dup=0 drop=50    frame=  190 fps=2.6 q=0.0 size=     197kB time=00:00:08.31 bitrate= 194.5kbits/s dup=0 drop=50    frame=  193 fps=2.6 q=0.0 size=     200kB time=00:00:08.44 bitrate= 193.6kbits/s dup=0 drop=51    Past duration 0.954826 too large
frame=  195 fps=2.6 q=0.0 size=     201kB time=00:00:08.53 bitrate= 193.3kbits/s dup=0 drop=52    frame=  196 fps=2.6 q=0.0 size=     203kB time=00:00:08.57 bitrate= 194.0kbits/s dup=0 drop=52    Past duration 0.884743 too large
frame=  199 fps=2.6 q=0.0 size=     207kB time=00:00:08.70 bitrate= 194.4kbits/s dup=0 drop=53    frame=  200 fps=2.6 q=0.0 size=     211kB time=00:00:08.75 bitrate= 197.6kbits/s dup=0 drop=53    frame=  203 fps=2.6 q=0.0 size=     215kB time=00:00:08.88 bitrate= 198.6kbits/s dup=0 drop=54    frame=  203 fps=2.6 q=0.0 size=     215kB time=00:00:08.88 bitrate= 198.6kbits/s dup=0 drop=54    Past duration 0.936653 too large
frame=  206 fps=2.6 q=0.0 size=     219kB time=00:00:09.01 bitrate= 198.7kbits/s dup=0 drop=55    Past duration 0.843498 too large
frame=  208 fps=2.6 q=0.0 size=     220kB time=00:00:09.09 bitrate= 198.3kbits/s dup=0 drop=56    frame=  210 fps=2.6 q=0.0 size=     223kB time=00:00:09.18 bitrate= 198.8kbits/s dup=0 drop=56    frame=  210 fps=2.5 q=0.0 size=     223kB time=00:00:09.18 bitrate= 198.8kbits/s dup=0 drop=56    Past duration 0.988579 too large
frame=  213 fps=2.5 q=0.0 size=     225kB time=00:00:09.31 bitrate= 198.2kbits/s dup=0 drop=57    Past duration 0.895409 too large
frame=  215 fps=2.5 q=0.0 size=     229kB time=00:00:09.40 bitrate= 199.6kbits/s dup=0 drop=58    frame=  217 fps=2.5 q=0.0 size=     232kB time=00:00:09.48 bitrate= 199.9kbits/s dup=0 drop=58    frame=  217 fps=2.5 q=0.0 size=     232kB time=00:00:09.48 bitrate= 199.9kbits/s dup=0 drop=58    frame=  220 fps=2.5 q=0.0 size=     235kB time=00:00:09.61 bitrate= 199.9kbits/s dup=0 drop=59    Past duration 0.947319 too large
frame=  222 fps=2.5 q=0.0 size=     239kB time=00:00:09.70 bitrate= 201.4kbits/s dup=0 drop=60    frame=  223 fps=2.5 q=0.0 size=     239kB time=00:00:09.74 bitrate= 201.2kbits/s dup=0 drop=60    Past duration 0.877235 too large
frame=  226 fps=2.5 q=0.0 size=     243kB time=00:00:09.87 bitrate= 201.4kbits/s dup=0 drop=61    frame=  227 fps=2.5 q=0.0 size=     244kB time=00:00:09.92 bitrate= 201.4kbits/s dup=0 drop=61    frame=  230 fps=2.5 q=0.0 size=     247kB time=00:00:10.05 bitrate= 201.3kbits/s dup=0 drop=62    Past duration 0.929161 too large
frame=  232 fps=2.5 q=0.0 size=     250kB time=00:00:10.13 bitrate= 201.7kbits/s dup=0 drop=63    frame=  233 fps=2.5 q=0.0 size=     251kB time=00:00:10.18 bitrate= 202.2kbits/s dup=0 drop=63    frame=  233 fps=2.5 q=0.0 size=     251kB time=00:00:10.18 bitrate= 202.2kbits/s dup=0 drop=63    Past duration 0.835991 too large
frame=  236 fps=2.5 q=0.0 size=     255kB time=00:00:10.31 bitrate= 202.5kbits/s dup=0 drop=64    frame=  237 fps=2.5 q=0.0 size=     256kB time=00:00:10.35 bitrate= 202.2kbits/s dup=0 drop=64    Past duration 0.981071 too large
frame=  239 fps=2.5 q=0.0 size=     258kB time=00:00:10.44 bitrate= 202.1kbits/s dup=0 drop=65    frame=  240 fps=2.5 q=0.0 size=     260kB time=00:00:10.48 bitrate= 202.8kbits/s dup=0 drop=65    Past duration 0.887917 too large
frame=  243 fps=2.5 q=0.0 size=     263kB time=00:00:10.61 bitrate= 202.6kbits/s dup=0 drop=66    frame=  244 fps=2.5 q=0.0 size=     263kB time=00:00:10.65 bitrate= 202.2kbits/s dup=0 drop=66    frame=  246 fps=2.5 q=0.0 size=     266kB time=00:00:10.74 bitrate= 202.7kbits/s dup=0 drop=67    frame=  247 fps=2.5 q=0.0 size=     267kB time=00:00:10.78 bitrate= 203.1kbits/s dup=0 drop=67    Past duration 0.939827 too large
frame=  250 fps=2.5 q=0.0 size=     270kB time=00:00:10.91 bitrate= 202.6kbits/s dup=0 drop=68    Past duration 0.869743 too large
frame=  252 fps=2.5 q=0.0 size=     273kB time=00:00:11.00 bitrate= 203.2kbits/s dup=0 drop=69    frame=  254 fps=2.5 q=0.0 size=     275kB time=00:00:11.09 bitrate= 203.1kbits/s dup=0 drop=69    frame=  254 fps=2.5 q=0.0 size=     275kB time=00:00:11.09 bitrate= 203.1kbits/s dup=0 drop=69    frame=  257 fps=2.5 q=0.0 size=     277kB time=00:00:11.22 bitrate= 202.6kbits/s dup=0 drop=70    Past duration 0.921654 too large
frame=  259 fps=2.5 q=0.0 size=     280kB time=00:00:11.30 bitrate= 202.9kbits/s dup=0 drop=71    frame=  260 fps=2.5 q=0.0 size=     282kB time=00:00:11.35 bitrate= 203.4kbits/s dup=0 drop=71    Past duration 0.828499 too large
frame=  263 fps=2.5 q=0.0 size=     285kB time=00:00:11.48 bitrate= 203.6kbits/s dup=0 drop=72    frame=  264 fps=2.5 q=0.0 size=     286kB time=00:00:11.52 bitrate= 203.2kbits/s dup=0 drop=72    Past duration 0.973579 too large
frame=  266 fps=2.5 q=0.0 size=     289kB time=00:00:11.61 bitrate= 203.7kbits/s dup=0 drop=73    frame=  267 fps=2.5 q=0.0 size=     291kB time=00:00:11.65 bitrate= 204.3kbits/s dup=0 drop=73    Past duration 0.880409 too large
frame=  270 fps=2.5 q=0.0 size=     296kB time=00:00:11.78 bitrate= 205.5kbits/s dup=0 drop=74    frame=  271 fps=2.5 q=0.0 size=     296kB time=00:00:11.82 bitrate= 205.0kbits/s dup=0 drop=74    frame=  273 fps=2.5 q=0.0 size=     299kB time=00:00:11.91 bitrate= 205.6kbits/s dup=0 drop=75    frame=  274 fps=2.4 q=0.0 size=     301kB time=00:00:11.95 bitrate= 206.2kbits/s dup=0 drop=75    Past duration 0.932320 too large
frame=  277 fps=2.5 q=0.0 size=     303kB time=00:00:12.08 bitrate= 205.7kbits/s dup=0 drop=76    Past duration 0.862236 too large
frame=  279 fps=2.5 q=0.0 size=     306kB time=00:00:12.17 bitrate= 206.0kbits/s dup=0 drop=77    frame=  280 fps=2.5 q=0.0 size=     307kB time=00:00:12.21 bitrate= 205.6kbits/s dup=0 drop=77    frame=  281 fps=2.4 q=0.0 size=     309kB time=00:00:12.26 bitrate= 206.2kbits/s dup=0 drop=77    frame=  284 fps=2.5 q=0.0 size=     313kB time=00:00:12.39 bitrate= 207.0kbits/s dup=0 drop=78    frame=  284 fps=2.4 q=0.0 size=     313kB time=00:00:12.39 bitrate= 207.0kbits/s dup=0 drop=78    Past duration 0.914162 too large
frame=  287 fps=2.4 q=0.0 size=     316kB time=00:00:12.52 bitrate= 206.5kbits/s dup=0 drop=79    Past duration 0.820992 too large
frame=  289 fps=2.4 q=0.0 size=     318kB time=00:00:12.60 bitrate= 207.0kbits/s dup=0 drop=80    frame=  291 fps=2.4 q=0.0 size=     321kB time=00:00:12.69 bitrate= 206.9kbits/s dup=0 drop=80    Past duration 0.966072 too large
frame=  293 fps=2.4 q=0.0 size=     323kB time=00:00:12.77 bitrate= 207.0kbits/s dup=0 drop=81    frame=  294 fps=2.4 q=0.0 size=     323kB time=00:00:12.82 bitrate= 206.4kbits/s dup=0 drop=81    Past duration 0.872902 too large
frame=  296 fps=2.4 q=0.0 size=     326kB time=00:00:12.90 bitrate= 206.7kbits/s dup=0 drop=82    frame=  298 fps=2.4 q=0.0 size=     330kB time=00:00:12.99 bitrate= 207.8kbits/s dup=0 drop=82    frame=  298 fps=2.4 q=0.0 size=     330kB time=00:00:12.99 bitrate= 207.8kbits/s dup=0 drop=82    frame=  301 fps=2.4 q=0.0 size=     333kB time=00:00:13.12 bitrate= 207.8kbits/s dup=0 drop=83    frame=  301 fps=2.4 q=0.0 size=     333kB time=00:00:13.12 bitrate= 207.8kbits/s dup=0 drop=83    Past duration 0.924828 too large
frame=  303 fps=2.4 q=0.0 size=     335kB time=00:00:13.21 bitrate= 207.7kbits/s dup=0 drop=84    frame=  304 fps=2.4 q=0.0 size=     336kB time=00:00:13.25 bitrate= 207.7kbits/s dup=0 drop=84    Past duration 0.854744 too large
frame=  307 fps=2.4 q=0.0 size=     338kB time=00:00:13.38 bitrate= 207.0kbits/s dup=0 drop=85    frame=  308 fps=2.4 q=0.0 size=     341kB time=00:00:13.42 bitrate= 207.8kbits/s dup=0 drop=85    Past duration 0.976738 too large
frame=  311 fps=2.4 q=0.0 size=     343kB time=00:00:13.55 bitrate= 207.4kbits/s dup=0 drop=86    Past duration 0.906654 too large
frame=  313 fps=2.4 q=0.0 size=     348kB time=00:00:13.64 bitrate= 208.9kbits/s dup=0 drop=87    frame=  315 fps=2.4 q=0.0 size=     350kB time=00:00:13.73 bitrate= 208.8kbits/s dup=0 drop=87    frame=  315 fps=2.4 q=0.0 size=     350kB time=00:00:13.73 bitrate= 208.8kbits/s dup=0 drop=87    frame=  317 fps=2.4 q=0.0 size=     352kB time=00:00:13.81 bitrate= 208.7kbits/s dup=0 drop=88    frame=  318 fps=2.4 q=0.0 size=     354kB time=00:00:13.86 bitrate= 208.9kbits/s dup=0 drop=88    Past duration 0.958580 too large
frame=  321 fps=2.4 q=0.0 size=     356kB time=00:00:13.99 bitrate= 208.6kbits/s dup=0 drop=89    Past duration 0.865410 too large
frame=  322 fps=2.4 q=0.0 size=     357kB time=00:00:14.03 bitrate= 208.4kbits/s dup=0 drop=90    frame=  324 fps=2.4 q=0.0 size=     360kB time=00:00:14.12 bitrate= 208.5kbits/s dup=0 drop=90    frame=  325 fps=2.4 q=0.0 size=     362kB time=00:00:14.16 bitrate= 209.5kbits/s dup=0 drop=90    frame=  327 fps=2.4 q=0.0 size=     364kB time=00:00:14.25 bitrate= 209.3kbits/s dup=0 drop=frame= frame=  328 fps=2.4 q=0.0 size=     366kB time=00:00:14.29 bitrate= 209.9kbitsframe=  445 fps=2.5 q=0.0 size=     387kB time=00:00:1frame=  331 fps=2.4 q=0.0 size=frame=  447 fps=2.5 q=0.0 size=     389kB time=00:00:14.14 bitrate= 225.3kbits/s    frame=  449 fps=2.5 q=0.0 size=     391kB time=00:00:14.20 bitrate= 225.4kbits/s    frame=  451 fps=2.5 q=0.0 size=     393kB time=00:00:14.27 bitrate= 225.8kbits/s    frame=  452 fps=2.5 q=0.0 size=     394kB time=00:00:14.30 bitrate= 225.6kbitframe=  frame=  454 fps=2.5 q=0.0 size=     395kB time=00:00:14.37 bitrate= 225.3kbits/s    frame=  456 fps=2.5 q=0.0 size=     397kB time=00:00:14.44 bitrate= 225.2kbits/s    frame=  457 fps=2.5 q=0.0 size=     398kB time=00:00:frame=  341 fps=2.4 q=0.0 size= frame=  459 fps=2.5 q=0.0 size=     401kB time=00:00:14.54 bitrate= 226.1kbits/s    frame=  460 fps=2.5 q=0.0 size=     402kB time=00:00:14.57 bitrate= 225.8kbits/s    frame=  462 fps=2.5 q=0.0 size=     404kB time=00:00:14.64 bitrate= 225.9kbits/s    frame=  464 fps=2.5 q=0.0 size=     405kB time=00:00:14.70 bitrate= 225.7kbits/s    frame=  466 fps=2.5 q=0.0 size=     407kB time=00:00:14.77 bitrate= 225.8kbits/s    frame=  468 fps=2.5 q=0.0 size=     409kB time=00:00:14.84 bitrate= 225.6kbits/s    frame=  469 fps=2.5 q=0.0 size=     409kB time=00:00:14.87 bitrate= 225.4kbits/s    frame=  471 fps=2.5 q=0.0 size=     411kB time=00:00:14.94 bitrate= 225.3kbits/s    frame=  473 fps=2.5 q=0.0 size=     413kB time=00:00:15.01 bitrate= 225.3kbits/s    frame=  475 fps=2.5 q=0.0 size=     417kB time=00:00:15.07 bitrate= 226.5kbits/s    frame=  477 fps=2.5 q=0.0 size=     419kB time=00:00:15.14 bitrate= 226.5kbits/s    frame=  479 fps=2.5 q=0.0 size=     420kB time=00:00:15.21 bitrate= 226.2kbits/s    frame=  481 fps=2.5 q=0.0 size=     424kB time=00:00:15.27 bitrate= 227.2kbits/s    frame=  483 fps=2.5 q=0.0 size=     426kB time=00:00:15.34 bitrate= 227.3kbits/s    frame=  485 fps=2.5 q=0.0 size=     428kB time=00:00:15.41 bitrate= 227.4kbits/s    frame=  487 fps=frame=  361 fps=2.2 q=0.0 Lsize=     436kB time=00:00:16.76 bitrate= 213.0kbits/s dup=0 drop=101    
video:433kB audio:0kB subtitle:0kB other streams:0kB global headers:0kB muxing overhead: 0.690614%
=00:00:15.61 bitrate= 226.6kbits/s    frame=  492 fps=2.5 q=0.0 size=     433kB time=00:00:15.64 bitrate= 226.5kbits/s    frame=  494 fps=2.5 q=0.0 size=     434kB time=00:00:15.71 bitrate= 226.2kbits/s    frame=  496 fps=2.5 q=0.0 size=     436kB time=00:00:15.77 bitrate= 226.4kbits/s    frame=  498 fps=2.5 q=0.0 size=     438kB time=00:00:15.84 bitrate= 226.2kbits/s    frame=  500 fps=2.5 q=0.0 size=     439kB time=00:00:15.91 bitrate= 226.2kbits/s    frame=  502 fps=2.5 q=0.0 size=     442kB time=00:00:15.97 bitrate= 226.6kbits/s    frame=  504 fps=2.5 q=0.0 size=     444kB time=00:00:16.04 bitrate= 226.5kbits/s    frame=  505 fps=2.5 q=0.0 size=     444kB time=00:00:16.07 bitrate= 226.4kbits/s    frame=  507 fps=2.5 q=0.0 size=     447kB time=00:00:16.14 bitrate= 226.5kbits/s    frame=  509 fps=2.5 q=0.0 size=     449kB time=00:00:16.21 bitrate= 226.8kbits/s    frame=  512 fps=2.5 q=0.0 size=     452kB time=00:00:16.31 bitrate= 226.8kbits/s    frame=  514 fps=2.5 q=0.0 size=     453kB time=00:00:16.38 bitrate= 226.6kbits/s    frame=  517 fps=2.5 q=0.0 size=     455kB time=00:00:16.48 bitrate= 226.2kbits/s    frame=  519 fps=2.5 q=0.0 size=     457kB time=00:00:16.54 bitrate= 226.2kbits/s    frame=  521 fps=2.5 q=0.0 size=     459kB time=00:00:16.61 bitrate= 226.2kbits/s    frame=  523 fps=2.5 q=0.0 size=     461kB time=00:00:16.68 bitrate= 226.5kbits/s    frame=  526 fps=2.5 q=0.0 size=     464kB time=00:00:16.78 bitrate= 226.4kbits/s    frame=  528 fps=2.5 q=0.0 size=     466kB time=00:00:16.84 bitrate= 226.4kbits/s    frame=  530 fps=2.5 q=0.0 size=     467kB time=00:00:16.91 bitrate= 226.3kbits/s    frame=  532 fps=2.5 q=0.0 size=     469kB time=00:00:16.98 bitrate= 226.2kbits/s    frame=  534 fps=2.5 q=0.0 size=     470kB time=00:00:17.04 bitrate= 226.0kbits/s    frame=  535 fps=2.5 q=0.0 size=     472kB time=00:00:17.08 bitrate= 226.1kbits/s    frame=  538 fps=2.5 q=0.0 size=     474kB time=00:00:17.18 bitrate= 225.9kbits/s    frame=  540 fps=2.6 q=0.0 size=     475kB time=00:00:17.24 bitrate= 225.8kbits/s    frame=  542 fps=2.6 q=0.0 size=     478kB time=00:00:17.31 bitrate= 226.0kbits/s    frame=  545 fps=2.6 q=0.0 size=     480kB time=00:00:17.41 bitrate= 225.8kbits/s    frame=  547 fps=2.6 q=0.0 size=     481kB time=00:00:17.48 bitrate= 225.5kbits/s    frame=  548 fps=2.6 q=0.0 size=     483kB time=00:00:17.51 bitrate= 225.7kbits/s    frame=  549 fps=2.6 q=0.0 size=     483kB time=00:00:17.55 bitrate= 225.4kbits/s    frame=  551 fps=2.6 q=0.0 size=     485kB time=00:00:17.61 bitrate= 225.5kbits/s    frame=  554 fps=2.6 q=0.0 size=     487kB time=00:00:17.71 bitrate= 225.2kbits/s    frame=  556 fps=2.6 q=0.0 size=     489kB time=00:00:17.78 bitrate= 225.1kbits/s    frame=  559 fps=2.6 q=0.0 size=     492kB time=00:00:17.88 bitrate= 225.1kbits/s    frame=  561 fps=2.6 q=0.0 size=     493kB time=00:00:17.95 bitrate= 225.2kbits/s    frame=  564 fps=2.6 q=0.0 size=     496kB time=00:00:18.05 bitrate= 224.9kbits/s    frame=  567 fps=2.6 q=0.0 size=     499kB time=00:00:18.15 bitrate= 225.1kbits/s    frame=  570 fps=2.6 q=0.0 size=     500kB time=00:00:18.25 bitrate= 224.6kbits/s    frame=  573 fps=2.6 q=0.0 size=     503kB time=00:00:18.35 bitrate= 224.3kbits/s    frame=  576 fps=2.6 q=0.0 size=     506kB time=00:00:18.45 bitrate= 224.7kbits/s    frame=  578 fps=2.6 q=0.0 size=     508kB time=00:00:18.52 bitrate= 224.8kbits/s    frame=  580 fps=2.6 q=0.0 size=     510kB time=00:00:18.58 bitrate= 224.9kbits/s    frame=  583 fps=2.6 q=0.0 size=     514kB time=00:00:18.68 bitrate= 225.4kbits/s    frame=  585 fps=2.6 q=0.0 size=     515kB time=00:00:18.75 bitrate= 224.8kbits/s    frame=  588 fps=2.6 q=0.0 size=     518kB time=00:00:18.85 bitrate= 225.1kbits/s    frame=  591 fps=2.6 q=0.0 size=     521kB time=00:00:18.95 bitrate= 225.0kbits/s    frame=  593 fps=2.6 q=0.0 size=     524kB time=00:00:19.02 bitrate= 225.9kbits/s    frame=  596 fps=2.6 q=0.0 size=     526kB time=00:00:19.12 bitrate= 225.5kbits/s    frame=  598 fps=2.6 q=0.0 size=     529kB time=00:00:19.18 bitrate= 225.7kbits/s    frame=  602 fps=2.6 q=0.0 size=     533kB time=00:00:19.32 bitrate= 225.9kbits/s    frame=  605 fps=2.7 q=0.0 size=     535kB time=00:00:19.42 bitrate= 225.7kbits/s    frame=  608 fps=2.7 q=0.0 size=     539kB time=00:00:19.52 bitrate= 226.1kbits/s    frame=  610 fps=2.7 q=0.0 size=     541kB time=00:00:19.58 bitrate= 226.0kbits/s    frame=  613 fps=2.7 q=0.0 size=     543kB time=00:00:19.69 bitrate= 225.9kbits/s    frame=  616 fps=2.7 q=0.0 size=     546kB time=00:00:19.79 bitrate= 226.1kbits/s    frame=  618 fps=2.7 q=0.0 size=     548kB time=00:00:19.85 bitrate= 226.3kbits/s    frame=  621 fps=2.7 q=0.0 size=     552kB time=00:00:19.95 bitrate= 226.6kbits/s    frame=  624 fps=2.7 q=0.0 size=     555kB time=00:00:20.05 bitrate= 226.5kbits/s    frame=  626 fps=2.7 q=0.0 size=     557kB time=00:00:20.12 bitrate= 226.7kbits/s    frame=  629 fps=2.7 q=0.0 size=     559kB time=00:00:20.22 bitrate= 226.6kbits/s    frame=  632 fps=2.7 q=0.0 size=     563kB time=00:00:20.32 bitrate= 226.9kbits/s    frame=  635 fps=2.7 q=0.0 size=     567kB time=00:00:20.42 bitrate= 227.2kbits/s    frame=  638 fps=2.7 q=0.0 size=     569kB time=00:00:20.52 bitrate= 227.1kbits/s    frame=  641 fps=2.7 q=0.0 size=     571kB time=00:00:20.62 bitrate= 226.7kbits/s    frame=  645 fps=2.7 q=0.0 size=     574kB time=00:00:20.76 bitrate= 226.6kbits/s    frame=  648 fps=2.7 q=0.0 size=     581kB time=00:00:20.86 bitrate= 228.0kbits/s    frame=  650 fps=2.7 q=0.0 size=     583kB time=00:00:20.92 bitrate= 228.1kbits/s    frame=  652 fps=2.7 q=0.0 size=     585kB time=00:00:20.99 bitrate= 228.2kbits/s    frame=  655 fps=2.7 q=0.0 size=     587kB time=00:00:21.09 bitrate= 228.0kbits/s    frame=  659 fps=2.7 q=0.0 size=     590kB time=00:00:21.22 bitrate= 227.8kbits/s    frame=  663 fps=2.8 q=0.0 size=     596kB time=00:00:21.36 bitrate= 228.4kbits/s    frame=  666 fps=2.8 q=0.0 size=     598kB time=00:00:21.46 bitrate= 228.2kbits/s    frame=  669 fps=2.8 q=0.0 size=     600kB time=00:00:21.56 bitrate= 228.1kbits/s    frame=  673 fps=2.8 q=0.0 size=     604kB time=00:00:21.69 bitrate= 228.1kbits/s    frame=  676 fps=2.8 q=0.0 size=     608kB time=00:00:21.79 bitrate= 228.4kbits/s    frame=  678 fps=2.8 q=0.0 size=     610kB time=00:00:21.86 bitrate= 228.4kbits/s    frame=  681 fps=2.8 q=0.0 size=     613kB time=00:00:21.96 bitrate= 228.5kbits/s    frame=  685 fps=2.8 q=0.0 size=     616kB time=00:00:22.09 bitrate= 228.3kbits/s    frame=  688 fps=2.8 q=0.0 size=     619kB time=00:00:22.19 bitrate= 228.4kbits/s    frame=  689 fps=0.2 q=0.0 size=     619kB time=00:00:22.23 bitrate= 228.2kbits/s    frame=  691 fps=0.2 q=0.0 size=     623kB time=00:00:22.29 bitrate= 228.9kbits/s    frame=  694 fps=0.2 q=0.0 size=     625kB time=00:00:22.39 bitrate= 228.7kbits/s    frame=  696 fps=0.2 q=0.0 size=     627kB time=00:00:22.46 bitrate= 228.8kbits/s    frame=  699 fps=0.2 q=0.0 size=     629kB time=00:00:22.56 bitrate= 228.4kbits/s    frame=  702 fps=0.2 q=0.0 size=     633kB time=00:00:22.66 bitrate= 228.7kbits/s    frame=  705 fps=0.2 q=0.0 size=     637kB time=00:00:22.76 bitrate= 229.1kbits/s    frame=  709 fps=0.2 q=0.0 size=     641kB time=00:00:22.89 bitrate= 229.2kbits/s    frame=  712 fps=0.2 q=0.0 size=     643kB time=00:00:22.99 bitrate= 229.1kbits/s    frame=  715 fps=0.2 q=0.0 size=     645kB time=00:00:23.10 bitrate= 228.9kbits/s    frame=  718 fps=0.2 q=0.0 size=     648kB time=00:00:23.20 bitrate= 228.9kbits/s    frame=  720 fps=0.2 q=0.0 size=     650kB time=00:00:23.26 bitrate= 228.8kbits/s    frame=  722 fps=0.2 q=0.0 size=     652kB time=00:00:23.33 bitrate= 228.8kbits/s    frame=  725 fps=0.2 q=0.0 size=     654kB time=00:00:23.43 bitrate= 228.6kbits/s    frame=  728 fps=0.2 q=0.0 size=     656kB time=00:00:23.53 bitrate= 228.5kbits/s    frame=  731 fps=0.2 q=0.0 size=     659kB time=00:00:23.63 bitrate= 228.4kbits/s    frame=  733 fps=0.2 q=0.0 size=     661kB time=00:00:23.70 bitrate= 228.3kbits/s    frame=  736 fps=0.2 q=0.0 size=     663kB time=00:00:23.80 bitrate= 228.3kbits/s    frame=  739 fps=0.2 q=0.0 size=     666kB time=00:00:23.90 bitrate= 228.2kbits/s    frame=  742 fps=0.2 q=0.0 size=     668kB time=00:00:24.00 bitrate= 228.1kbits/s    frame=  745 fps=0.2 q=0.0 size=     671kB time=00:00:24.10 bitrate= 228.0kbits/s    frame=  748 fps=0.2 q=0.0 size=     675kB time=00:00:24.20 bitrate= 228.3kbits/s    frame=  751 fps=0.2 q=0.0 size=     677kB time=00:00:24.30 bitrate= 228.1kbits/s    frame=  753 fps=0.2 q=0.0 size=     678kB time=00:00:24.37 bitrate= 228.0kbits/s    frame=  756 fps=0.2 q=0.0 size=     681kB time=00:00:24.47 bitrate= 227.8kbits/s    frame=  758 fps=0.2 q=0.0 size=     682kB time=00:00:24.53 bitrate= 227.8kbits/s    frame=  760 fps=0.2 q=0.0 size=     684kB time=00:00:24.60 bitrate= 227.9kbits/s    frame=  763 fps=0.2 q=0.0 size=     687kB time=00:00:24.70 bitrate= 227.7kbits/s    frame=  766 fps=0.2 q=0.0 size=     691kB time=00:00:24.80 bitrate= 228.1kbits/s    frame=  768 fps=0.2 q=0.0 size=     692kB time=00:00:24.87 bitrate= 227.8kbits/s    frame=  770 fps=0.2 q=0.0 size=     694kB time=00:00:24.93 bitrate= 227.8kbits/s    frame=  772 fps=0.2 q=0.0 size=     695kB time=00:00:25.00 bitrate= 227.8kbits/s    frame=  774 fps=0.2 q=0.0 size=     698kB time=00:00:25.07 bitrate= 228.2kbits/s    frame=  777 fps=0.2 q=0.0 size=     701kB time=00:00:25.17 bitrate= 228.0kbits/s    frame=  779 fps=0.2 q=0.0 size=     702kB time=00:00:25.23 bitrate= 228.0kbits/s    frame=  781 fps=0.2 q=0.0 size=     704kB time=00:00:25.30 bitrate= 228.0kbits/s    frame=  784 fps=0.2 q=0.0 size=     707kB time=00:00:25.40 bitrate= 227.8kbits/s    frame=  787 fps=0.2 q=0.0 size=     710kB time=00:00:25.50 bitrate= 228.1kbits/s    frame=  790 fps=0.2 q=0.0 size=     713kB time=00:00:25.60 bitrate= 228.1kbits/s    frame=  793 fps=0.2 q=0.0 size=     715kB time=00:00:25.70 bitrate= 228.0kbits/s    frame=  797 fps=0.2 q=0.0 size=     720kB time=00:00:25.84 bitrate= 228.3kbits/s    frame=  800 fps=0.2 q=0.0 size=     722kB time=00:00:25.94 bitrate= 228.0kbits/s    frame=  803 fps=0.2 q=0.0 size=     725kB time=00:00:26.04 bitrate= 228.2kbits/s    frame=  806 fps=0.2 q=0.0 size=     729kB time=00:00:26.14 bitrate= 228.4kbits/s    frame=  809 fps=0.2 q=0.0 size=     732kB time=00:00:26.24 bitrate= 228.4kbits/s    frame=  813 fps=0.2 q=0.0 size=     736kB time=00:00:26.37 bitrate= 228.5kbits/s    frame=  816 fps=0.2 q=0.0 size=     740kB time=00:00:26.47 bitrate= 228.9kbits/s    frame=  819 fps=0.2 q=0.0 size=     742kB time=00:00:26.57 bitrate= 228.6kbits/s    frame=  823 fps=0.2 q=0.0 size=     746kB time=00:00:26.71 bitrate= 228.7kbits/s    frame=  827 fps=0.2 q=0.0 size=     749kB time=00:00:26.84 bitrate= 228.7kbits/s    frame=  830 fps=0.2 q=0.0 size=     754kB time=00:00:26.94 bitrate= 229.4kbits/s    frame=  833 fps=0.2 q=0.0 size=     757kB time=00:00:27.04 bitrate= 229.2kbits/s    frame=  836 fps=0.2 q=0.0 size=     761kB time=00:00:27.14 bitrate= 229.7kbits/s    frame=  840 fps=0.2 q=0.0 size=     764kB time=00:00:27.27 bitrate= 229.3kbits/s    frame=  844 fps=0.2 q=0.0 size=     770kB time=00:00:27.41 bitrate= 230.0kbits/s    frame=  847 fps=0.2 q=0.0 size=     772kB time=00:00:27.51 bitrate= 229.8kbits/s    frame=  851 fps=0.2 q=0.0 size=     775kB time=00:00:27.64 bitrate= 229.8kbits/s    